<svg width="96" height="20" viewBox="0 0 96 20" fill="none" xmlns="http://www.w3.org/2000/svg">
<g clip-path="url(#clip0_4_380)">
<path d="M17.1407 7.48942L11.665 6.62002L9.1843 1.27945C9.00279 0.90685 8.51875 0.90685 8.33724 1.27945L5.85655 6.65107L0.411125 7.48942C0.0178441 7.55152 -0.133418 8.07937 0.169106 8.35882L4.13216 12.5505L3.19434 18.419C3.13384 18.8226 3.52712 19.1642 3.89014 18.9158L8.82127 16.1523L13.7222 18.9158C14.0549 19.1021 14.4785 18.7916 14.3877 18.419L13.4499 12.5505L17.4129 8.35882C17.655 8.07937 17.5339 7.55152 17.1407 7.48942Z" fill="#52503B"/>
</g>
<g clip-path="url(#clip1_4_380)">
<path d="M36.6783 7.48942L31.2027 6.62002L28.722 1.27945C28.5404 0.90685 28.0564 0.90685 27.8749 1.27945L25.3942 6.65107L19.9488 7.48942C19.5555 7.55152 19.4042 8.07937 19.7068 8.35882L23.6698 12.5505L22.732 18.419C22.6715 18.8226 23.0648 19.1642 23.4278 18.9158L28.3589 16.1523L33.2598 18.9158C33.5926 19.1021 34.0161 18.7916 33.9254 18.419L32.9875 12.5505L36.9506 8.35882C37.1926 8.07937 37.0716 7.55152 36.6783 7.48942Z" fill="#52503B"/>
</g>
<g clip-path="url(#clip2_4_380)">
<path d="M56.216 7.48942L50.7403 6.62002L48.2596 1.27945C48.0781 0.90685 47.5941 0.90685 47.4126 1.27945L44.9319 6.65107L39.4864 7.48942C39.0932 7.55152 38.9419 8.07937 39.2444 8.35882L43.2075 12.5505L42.2697 18.419C42.2092 18.8226 42.6024 19.1642 42.9655 18.9158L47.8966 16.1523L52.7975 18.9158C53.1302 19.1021 53.5538 18.7916 53.463 18.419L52.5252 12.5505L56.4883 8.35882C56.7303 8.07937 56.6093 7.55152 56.216 7.48942Z" fill="#52503B"/>
</g>
<g clip-path="url(#clip3_4_380)">
<path d="M75.7537 7.48942L70.278 6.62002L67.7973 1.27945C67.6158 0.90685 67.1318 0.90685 66.9503 1.27945L64.4696 6.65107L59.0242 7.48942C58.6309 7.55152 58.4796 8.07937 58.7821 8.35882L62.7452 12.5505L61.8074 18.419C61.7469 18.8226 62.1402 19.1642 62.5032 18.9158L67.4343 16.1523L72.3352 18.9158C72.668 19.1021 73.0915 18.7916 73.0007 18.419L72.0629 12.5505L76.026 8.35882C76.268 8.07937 76.147 7.55152 75.7537 7.48942Z" fill="#52503B"/>
</g>
<g clip-path="url(#clip4_4_380)">
<path d="M95.2914 7.48942L89.8157 6.62002L87.335 1.27945C87.1535 0.90685 86.6694 0.90685 86.4879 1.27945L84.0072 6.65107L78.5618 7.48942C78.1685 7.55152 78.0173 8.07937 78.3198 8.35882L82.2829 12.5505L81.345 18.419C81.2845 18.8226 81.6778 19.1642 82.0408 18.9158L86.972 16.1523L91.8728 18.9158C92.2056 19.1021 92.6292 18.7916 92.5384 18.419L91.6006 12.5505L95.5636 8.35882C95.8057 8.07937 95.6846 7.55152 95.2914 7.48942Z" fill="#52503B"/>
</g>
<defs>
<clipPath id="clip0_4_380">
<rect width="17.5377" height="18" fill="white" transform="translate(0 1)"/>
</clipPath>
<clipPath id="clip1_4_380">
<rect width="17.5377" height="18" fill="white" transform="translate(19.5377 1)"/>
</clipPath>
<clipPath id="clip2_4_380">
<rect width="17.5377" height="18" fill="white" transform="translate(39.0753 1)"/>
</clipPath>
<clipPath id="clip3_4_380">
<rect width="17.5377" height="18" fill="white" transform="translate(58.613 1)"/>
</clipPath>
<clipPath id="clip4_4_380">
<rect width="17.5377" height="18" fill="white" transform="translate(78.1507 1)"/>
</clipPath>
</defs>
</svg>
