<svg width="96" height="20" viewBox="0 0 96 20" fill="none" xmlns="http://www.w3.org/2000/svg">
<g clip-path="url(#clip0_4_404)">
<g clip-path="url(#clip1_4_404)">
<path d="M17.4716 7.78C17.3546 7.42 17.0624 7.15 16.7116 7.09L11.8303 6.31L9.63807 1.57C9.46269 1.21 9.14117 1 8.76119 1C8.38121 1 8.05968 1.21 7.91353 1.57L5.72132 6.34L0.810777 7.15C0.460023 7.21 0.167729 7.48 0.0508111 7.84C-0.0661067 8.2 0.0215817 8.62 0.284647 8.89L3.82141 12.61L3.00299 17.8C2.94453 18.19 3.09067 18.58 3.4122 18.82C3.58757 18.94 3.76295 19 3.93833 19C4.08448 19 4.25985 18.97 4.37677 18.88L8.76119 16.42L13.1164 18.85C13.4379 19.03 13.8179 19 14.1102 18.79C14.4317 18.55 14.5778 18.16 14.5194 17.77L13.701 12.55L17.2377 8.83C17.5008 8.56 17.5885 8.14 17.4716 7.78ZM16.7993 8.41L13.2918 12.13C13.1748 12.25 13.1164 12.46 13.1456 12.64L13.964 17.86C13.9933 18.07 13.9056 18.22 13.7887 18.28C13.7302 18.31 13.584 18.4 13.4087 18.31L9.02425 15.88C8.84888 15.79 8.6735 15.79 8.49812 15.88L4.11371 18.34C3.93833 18.43 3.79218 18.37 3.73372 18.31C3.64603 18.25 3.52912 18.07 3.55835 17.89L4.406 12.7C4.43523 12.52 4.37677 12.31 4.25985 12.19L0.723089 8.47C0.576941 8.32 0.576941 8.14 0.606171 8.02C0.66463 7.87 0.752318 7.78 0.898465 7.75L5.80901 6.94C5.98439 6.91 6.15977 6.79 6.21823 6.61L8.41043 1.84C8.49812 1.69 8.61504 1.6 8.76119 1.6C8.90734 1.6 9.02425 1.69 9.08271 1.84L11.2749 6.61C11.3626 6.79 11.5088 6.91 11.6841 6.94L16.5655 7.72C16.7116 7.75 16.8285 7.84 16.8577 7.99C16.9454 8.08 16.9454 8.29 16.7993 8.41Z" fill="#52503B"/>
</g>
<g clip-path="url(#clip2_4_404)">
<path d="M37.0092 7.78C36.8923 7.42 36.6 7.15 36.2493 7.09L31.3679 6.31L29.1757 1.57C29.0004 1.21 28.6788 1 28.2988 1C27.9189 1 27.5973 1.21 27.4512 1.57L25.259 6.34L20.3484 7.15C19.9977 7.21 19.7054 7.48 19.5885 7.84C19.4716 8.2 19.5592 8.62 19.8223 8.89L23.3591 12.61L22.5406 17.8C22.4822 18.19 22.6283 18.58 22.9499 18.82C23.1252 18.94 23.3006 19 23.476 19C23.6221 19 23.7975 18.97 23.9144 18.88L28.2988 16.42L32.654 18.85C32.9756 19.03 33.3555 19 33.6478 18.79C33.9694 18.55 34.1155 18.16 34.057 17.77L33.2386 12.55L36.7754 8.83C37.0385 8.56 37.1261 8.14 37.0092 7.78ZM36.3369 8.41L32.8294 12.13C32.7125 12.25 32.654 12.46 32.6833 12.64L33.5017 17.86C33.5309 18.07 33.4432 18.22 33.3263 18.28C33.2679 18.31 33.1217 18.4 32.9463 18.31L28.5619 15.88C28.3865 15.79 28.2112 15.79 28.0358 15.88L23.6514 18.34C23.476 18.43 23.3298 18.37 23.2714 18.31C23.1837 18.25 23.0668 18.07 23.096 17.89L23.9437 12.7C23.9729 12.52 23.9144 12.31 23.7975 12.19L20.2607 8.47C20.1146 8.32 20.1146 8.14 20.1438 8.02C20.2023 7.87 20.29 7.78 20.4361 7.75L25.3467 6.94C25.522 6.91 25.6974 6.79 25.7559 6.61L27.9481 1.84C28.0358 1.69 28.1527 1.6 28.2988 1.6C28.445 1.6 28.5619 1.69 28.6204 1.84L30.8126 6.61C30.9003 6.79 31.0464 6.91 31.2218 6.94L36.1031 7.72C36.2493 7.75 36.3662 7.84 36.3954 7.99C36.4831 8.08 36.4831 8.29 36.3369 8.41Z" fill="#52503B"/>
</g>
<g clip-path="url(#clip3_4_404)">
<path d="M56.5469 7.78C56.43 7.42 56.1377 7.15 55.7869 7.09L50.9056 6.31L48.7134 1.57C48.538 1.21 48.2165 1 47.8365 1C47.4566 1 47.135 1.21 46.9889 1.57L44.7967 6.34L39.8861 7.15C39.5354 7.21 39.2431 7.48 39.1262 7.84C39.0092 8.2 39.0969 8.62 39.36 8.89L42.8968 12.61L42.0783 17.8C42.0199 18.19 42.166 18.58 42.4875 18.82C42.6629 18.94 42.8383 19 43.0137 19C43.1598 19 43.3352 18.97 43.4521 18.88L47.8365 16.42L52.1917 18.85C52.5132 19.03 52.8932 19 53.1855 18.79C53.507 18.55 53.6532 18.16 53.5947 17.77L52.7763 12.55L56.3131 8.83C56.5761 8.56 56.6638 8.14 56.5469 7.78ZM55.8746 8.41L52.3671 12.13C52.2502 12.25 52.1917 12.46 52.221 12.64L53.0394 17.86C53.0686 18.07 52.9809 18.22 52.864 18.28C52.8055 18.31 52.6594 18.4 52.484 18.31L48.0996 15.88C47.9242 15.79 47.7488 15.79 47.5735 15.88L43.1891 18.34C43.0137 18.43 42.8675 18.37 42.8091 18.31C42.7214 18.25 42.6045 18.07 42.6337 17.89L43.4813 12.7C43.5106 12.52 43.4521 12.31 43.3352 12.19L39.7984 8.47C39.6523 8.32 39.6523 8.14 39.6815 8.02C39.74 7.87 39.8277 7.78 39.9738 7.75L44.8844 6.94C45.0597 6.91 45.2351 6.79 45.2936 6.61L47.4858 1.84C47.5735 1.69 47.6904 1.6 47.8365 1.6C47.9827 1.6 48.0996 1.69 48.1581 1.84L50.3503 6.61C50.438 6.79 50.5841 6.91 50.7595 6.94L55.6408 7.72C55.7869 7.75 55.9039 7.84 55.9331 7.99C56.0208 8.08 56.0208 8.29 55.8746 8.41Z" fill="#52503B"/>
</g>
<g clip-path="url(#clip4_4_404)">
<path d="M76.0846 7.78C75.9677 7.42 75.6754 7.15 75.3246 7.09L70.4433 6.31L68.2511 1.57C68.0757 1.21 67.7542 1 67.3742 1C66.9942 1 66.6727 1.21 66.5265 1.57L64.3343 6.34L59.4238 7.15C59.073 7.21 58.7807 7.48 58.6638 7.84C58.5469 8.2 58.6346 8.62 58.8977 8.89L62.4344 12.61L61.616 17.8C61.5575 18.19 61.7037 18.58 62.0252 18.82C62.2006 18.94 62.376 19 62.5513 19C62.6975 19 62.8729 18.97 62.9898 18.88L67.3742 16.42L71.7294 18.85C72.0509 19.03 72.4309 19 72.7232 18.79C73.0447 18.55 73.1909 18.16 73.1324 17.77L72.314 12.55L75.8507 8.83C76.1138 8.56 76.2015 8.14 76.0846 7.78ZM75.4123 8.41L71.9048 12.13C71.7878 12.25 71.7294 12.46 71.7586 12.64L72.577 17.86C72.6063 18.07 72.5186 18.22 72.4017 18.28C72.3432 18.31 72.1971 18.4 72.0217 18.31L67.6373 15.88C67.4619 15.79 67.2865 15.79 67.1111 15.88L62.7267 18.34C62.5513 18.43 62.4052 18.37 62.3467 18.31C62.259 18.25 62.1421 18.07 62.1714 17.89L63.019 12.7C63.0482 12.52 62.9898 12.31 62.8729 12.19L59.3361 8.47C59.1899 8.32 59.1899 8.14 59.2192 8.02C59.2776 7.87 59.3653 7.78 59.5115 7.75L64.422 6.94C64.5974 6.91 64.7728 6.79 64.8312 6.61L67.0234 1.84C67.1111 1.69 67.228 1.6 67.3742 1.6C67.5203 1.6 67.6373 1.69 67.6957 1.84L69.8879 6.61C69.9756 6.79 70.1218 6.91 70.2971 6.94L75.1785 7.72C75.3246 7.75 75.4415 7.84 75.4708 7.99C75.5584 8.08 75.5584 8.29 75.4123 8.41Z" fill="#52503B"/>
</g>
<g clip-path="url(#clip5_4_404)">
<path d="M95.6223 7.78C95.5053 7.42 95.213 7.15 94.8623 7.09L89.981 6.31L87.7888 1.57C87.6134 1.21 87.2919 1 86.9119 1C86.5319 1 86.2104 1.21 86.0642 1.57L83.872 6.34L78.9615 7.15C78.6107 7.21 78.3184 7.48 78.2015 7.84C78.0846 8.2 78.1723 8.62 78.4353 8.89L81.9721 12.61L81.1537 17.8C81.0952 18.19 81.2414 18.58 81.5629 18.82C81.7383 18.94 81.9136 19 82.089 19C82.2352 19 82.4105 18.97 82.5275 18.88L86.9119 16.42L91.2671 18.85C91.5886 19.03 91.9686 19 92.2609 18.79C92.5824 18.55 92.7285 18.16 92.6701 17.77L91.8517 12.55L95.3884 8.83C95.6515 8.56 95.7392 8.14 95.6223 7.78ZM94.95 8.41L91.4424 12.13C91.3255 12.25 91.2671 12.46 91.2963 12.64L92.1147 17.86C92.144 18.07 92.0563 18.22 91.9393 18.28C91.8809 18.31 91.7347 18.4 91.5594 18.31L87.1749 15.88C86.9996 15.79 86.8242 15.79 86.6488 15.88L82.2644 18.34C82.089 18.43 81.9429 18.37 81.8844 18.31C81.7967 18.25 81.6798 18.07 81.709 17.89L82.5567 12.7C82.5859 12.52 82.5275 12.31 82.4105 12.19L78.8738 8.47C78.7276 8.32 78.7276 8.14 78.7569 8.02C78.8153 7.87 78.903 7.78 79.0492 7.75L83.9597 6.94C84.1351 6.91 84.3105 6.79 84.3689 6.61L86.5611 1.84C86.6488 1.69 86.7657 1.6 86.9119 1.6C87.058 1.6 87.1749 1.69 87.2334 1.84L89.4256 6.61C89.5133 6.79 89.6595 6.91 89.8348 6.94L94.7161 7.72C94.8623 7.75 94.9792 7.84 95.0084 7.99C95.0961 8.08 95.0961 8.29 94.95 8.41Z" fill="#52503B"/>
</g>
</g>
<defs>
<clipPath id="clip0_4_404">
<rect width="95.6884" height="20" fill="white"/>
</clipPath>
<clipPath id="clip1_4_404">
<rect width="17.5377" height="18" fill="white" transform="translate(0 1)"/>
</clipPath>
<clipPath id="clip2_4_404">
<rect width="17.5377" height="18" fill="white" transform="translate(19.5377 1)"/>
</clipPath>
<clipPath id="clip3_4_404">
<rect width="17.5377" height="18" fill="white" transform="translate(39.0753 1)"/>
</clipPath>
<clipPath id="clip4_4_404">
<rect width="17.5377" height="18" fill="white" transform="translate(58.613 1)"/>
</clipPath>
<clipPath id="clip5_4_404">
<rect width="17.5377" height="18" fill="white" transform="translate(78.1507 1)"/>
</clipPath>
</defs>
</svg>
